<svg width="18" height="18" viewBox="0 0 18 18" fill="none" xmlns="http://www.w3.org/2000/svg">
<rect opacity="0.25" x="0.694444" y="0.224747" width="17.0808" height="17.0808" rx="8.5404" stroke="#0A142F" stroke-width="0.449495"/>
<path d="M9.45996 5.39395C7.72133 5.39323 6.31314 6.839 6.31314 8.62347C6.31314 10.0346 7.19405 11.2341 8.42086 11.6746C8.58608 11.7172 8.56077 11.5966 8.56077 11.5143V10.9546C7.60674 11.0694 7.56807 10.4209 7.50409 10.3126C7.37473 10.0858 7.06891 10.0281 7.16031 9.91975C7.37755 9.80492 7.599 9.94863 7.85562 10.3379C8.04122 10.6202 8.40328 10.5726 8.58678 10.5256C8.62685 10.3559 8.71262 10.2043 8.83073 10.0866C7.84226 9.90458 7.43027 9.28497 7.43027 8.54836C7.43027 8.19089 7.54487 7.86231 7.76984 7.59727C7.62642 7.16036 7.7832 6.78628 7.80429 6.73068C8.21276 6.69312 8.6374 7.0311 8.67044 7.05782C8.90244 6.99354 9.16749 6.9596 9.46418 6.9596C9.76227 6.9596 10.028 6.99499 10.2621 7.05998C10.3416 6.99788 10.7353 6.70757 11.1149 6.74295C11.1353 6.79856 11.2886 7.16397 11.1536 7.5951C11.3814 7.86086 11.4974 8.19233 11.4974 8.55053C11.4974 9.28858 11.0826 9.90891 10.0913 10.088C10.1762 10.1738 10.2436 10.2761 10.2896 10.3889C10.3356 10.5017 10.3592 10.6229 10.3591 10.7452V11.5576C10.3648 11.6226 10.3591 11.6869 10.4646 11.6869C11.7097 11.2557 12.6061 10.0476 12.6061 8.62419C12.6061 6.839 11.1972 5.39395 9.45996 5.39395Z" fill="black"/>
</svg>
