<svg width="89" height="18" viewBox="0 0 89 18" fill="none" xmlns="http://www.w3.org/2000/svg">
<rect opacity="0.25" x="47.8712" y="0.224747" width="17.0808" height="17.0808" rx="8.5404" stroke="#0A142F" stroke-width="0.449495"/>
<path fill-rule="evenodd" clip-rule="evenodd" d="M56.3272 7.60822L56.3399 7.82208L56.1288 7.79589C55.3603 7.69551 54.689 7.35508 54.119 6.78333L53.8403 6.49963L53.7686 6.70913C53.6166 7.17613 53.7137 7.66932 54.0303 8.00103C54.1992 8.18434 54.1612 8.21052 53.8699 8.10141C53.7686 8.06649 53.6799 8.04031 53.6715 8.0534C53.6419 8.08395 53.7432 8.48112 53.8235 8.63825C53.9332 8.85647 54.157 9.07033 54.4019 9.1969L54.6088 9.29729L54.3639 9.30165C54.1275 9.30165 54.119 9.30602 54.1443 9.39767C54.2288 9.68136 54.5623 9.98252 54.9339 10.1135L55.1957 10.2051L54.9677 10.3448C54.6299 10.5455 54.233 10.659 53.8361 10.6677C53.6461 10.6721 53.4899 10.6896 53.4899 10.7027C53.4899 10.7463 54.005 10.9907 54.3048 11.0867C55.2041 11.3704 56.2723 11.2482 57.0745 10.7638C57.6445 10.419 58.2145 9.73374 58.4805 9.07033C58.6241 8.71681 58.7677 8.07086 58.7677 7.76098C58.7677 7.56021 58.7803 7.53402 59.0168 7.29398C59.1561 7.15431 59.287 7.00155 59.3123 6.95791C59.3545 6.87498 59.3503 6.87498 59.135 6.94918C58.7761 7.08011 58.7254 7.06266 58.9028 6.86625C59.0337 6.72659 59.1899 6.47345 59.1899 6.39925C59.1899 6.38616 59.1265 6.40798 59.0548 6.44726C58.9788 6.49091 58.8099 6.55637 58.6832 6.59565L58.4552 6.66985L58.2483 6.52582C58.1343 6.44726 57.9739 6.35997 57.8894 6.33378C57.6741 6.27268 57.3448 6.28141 57.1505 6.35124C56.6228 6.54764 56.2892 7.05393 56.3272 7.60822Z" fill="#0A142F"/>
<rect opacity="0.25" x="24.048" y="0.224747" width="17.0808" height="17.0808" rx="8.5404" stroke="#0A142F" stroke-width="0.449495"/>
<path fill-rule="evenodd" clip-rule="evenodd" d="M31.0151 11.6869H29.6667V7.64142H31.0151V11.6869Z" fill="#0A142F"/>
<path fill-rule="evenodd" clip-rule="evenodd" d="M30.3369 6.74244H30.3292C29.9268 6.74244 29.6667 6.44263 29.6667 6.06796C29.6667 5.68536 29.9347 5.39395 30.3448 5.39395C30.7548 5.39395 31.0074 5.68536 31.0151 6.06796C31.0151 6.44263 30.7548 6.74244 30.3369 6.74244Z" fill="#0A142F"/>
<path fill-rule="evenodd" clip-rule="evenodd" d="M35.9595 11.6868H34.6345V9.57216C34.6345 9.04101 34.4427 8.67858 33.963 8.67858C33.5969 8.67858 33.3788 8.92291 33.2831 9.15891C33.248 9.24348 33.2394 9.36132 33.2394 9.47945V11.6869H31.9141C31.9141 11.6869 31.9316 8.10522 31.9141 7.73434H33.2394V8.29418C33.4153 8.02505 33.7303 7.64142 34.4339 7.64142C35.3059 7.64142 35.9596 8.20646 35.9596 9.4205L35.9595 11.6868Z" fill="#0A142F"/>
<rect opacity="0.25" x="71.6944" y="0.224747" width="17.0808" height="17.0808" rx="8.5404" stroke="#0A142F" stroke-width="0.449495"/>
<path d="M80.46 5.39395C78.7213 5.39323 77.3131 6.839 77.3131 8.62347C77.3131 10.0346 78.1941 11.2341 79.4209 11.6746C79.5861 11.7172 79.5608 11.5966 79.5608 11.5143V10.9546C78.6067 11.0694 78.5681 10.4209 78.5041 10.3126C78.3747 10.0858 78.0689 10.0281 78.1603 9.91975C78.3775 9.80492 78.599 9.94863 78.8556 10.3379C79.0412 10.6202 79.4033 10.5726 79.5868 10.5256C79.6269 10.3559 79.7126 10.2043 79.8307 10.0866C78.8423 9.90458 78.4303 9.28497 78.4303 8.54836C78.4303 8.19089 78.5449 7.86231 78.7698 7.59727C78.6264 7.16036 78.7832 6.78628 78.8043 6.73068C79.2128 6.69312 79.6374 7.0311 79.6704 7.05782C79.9024 6.99354 80.1675 6.9596 80.4642 6.9596C80.7623 6.9596 81.028 6.99499 81.2621 7.05998C81.3416 6.99788 81.7353 6.70757 82.1149 6.74295C82.1353 6.79856 82.2886 7.16397 82.1536 7.5951C82.3814 7.86086 82.4974 8.19233 82.4974 8.55053C82.4974 9.28858 82.0826 9.90891 81.0913 10.088C81.1762 10.1738 81.2436 10.2761 81.2896 10.3889C81.3356 10.5017 81.3592 10.6229 81.3591 10.7452V11.5576C81.3648 11.6226 81.3591 11.6869 81.4646 11.6869C82.7097 11.2557 83.6061 10.0476 83.6061 8.62419C83.6061 6.839 82.1972 5.39395 80.46 5.39395Z" fill="black"/>
<rect opacity="0.25" x="0.224747" y="0.224747" width="17.0808" height="17.0808" rx="8.5404" stroke="#0A142F" stroke-width="0.449495"/>
<path fill-rule="evenodd" clip-rule="evenodd" d="M7.88896 12.1364V8.7649H7.19192V7.60303H7.88896V6.90544C7.88896 5.95759 8.28256 5.39395 9.40081 5.39395H10.3318V6.55596H9.74987C9.31456 6.55596 9.28576 6.71833 9.28576 7.02137L9.28418 7.60289H10.3384L10.215 8.76477H9.28418V12.1364H7.88896Z" fill="#0A142F"/>
</svg>
