<svg width="19" height="18" viewBox="0 0 19 18" fill="none" xmlns="http://www.w3.org/2000/svg">
<rect opacity="0.25" x="1.04797" y="0.224747" width="17.0808" height="17.0808" rx="8.5404" stroke="#0A142F" stroke-width="0.449495"/>
<path fill-rule="evenodd" clip-rule="evenodd" d="M8.01514 11.6869H6.66666V7.64142H8.01514V11.6869V11.6869Z" fill="#0A142F"/>
<path fill-rule="evenodd" clip-rule="evenodd" d="M7.33689 6.74244H7.32923C6.92681 6.74244 6.66666 6.44263 6.66666 6.06796C6.66666 5.68536 6.93474 5.39395 7.34479 5.39395C7.75484 5.39395 8.00736 5.68536 8.01514 6.06796C8.01514 6.44263 7.75484 6.74244 7.33689 6.74244V6.74244Z" fill="#0A142F"/>
<path fill-rule="evenodd" clip-rule="evenodd" d="M12.9595 11.6868H11.6345V9.57216C11.6345 9.04101 11.4427 8.67858 10.963 8.67858C10.5969 8.67858 10.3788 8.92291 10.2831 9.15891C10.248 9.24348 10.2394 9.36132 10.2394 9.47945V11.6869H8.91414C8.91414 11.6869 8.9316 8.10522 8.91414 7.73434H10.2394V8.29418C10.4153 8.02505 10.7303 7.64142 11.4339 7.64142C12.3059 7.64142 12.9596 8.20646 12.9596 9.4205L12.9595 11.6868V11.6868Z" fill="#0A142F"/>
</svg>
