<?xml version='1.0' encoding='utf-8'?>
<svg xmlns="http://www.w3.org/2000/svg" width="34.363mm" height="34.362mm" version="1.1" viewBox="0 0 34.363 34.362"> <g transform="translate(-97.081 -93.306)"> <path d="m109.13 94.306c-6.0903 0-11.051 4.9581-11.051 11.048 0 6.0903 4.9607 11.051 11.051 11.051 2.2759 0 4.3935-0.69294 6.1536-1.8784l0.90124 0.94103 3.0577-3.0577-0.94154-0.90124c1.1852-1.7604 1.8779-3.8788 1.8779-6.1547 0-6.0903-4.9586-11.048-11.049-11.048zm0 2.0996c4.9554 1e-6 8.9493 3.9934 8.9493 8.9488s-3.994 8.9514-8.9493 8.9514c-4.9554 0-8.9514-3.996-8.9514-8.9514 0-4.9554 3.996-8.9488 8.9514-8.9488zm5.1718 3.8669a0.35 0.35 0 0 0-0.25166 0.092 0.35 0.35 0 0 0-0.0217 0.49403c0.7633 0.83155 1.3022 1.844 1.5663 2.9414a0.35 0.35 0 0 0 0.42219 0.25787 0.35 0.35 0 0 0 0.25735-0.4222c-0.29187-1.2129-0.88651-2.3324-1.7301-3.2515a0.35 0.35 0 0 0-0.24236-0.11164zm-10.526 0.23306a0.35 0.35 0 0 0-0.27595 0.12454c-2.2913 2.7306-2.2913 6.7184 0 9.449a0.35 0.35 0 0 0 0.49196 0.0429 0.35 0.35 0 0 0 0.0429-0.49196c-2.0759-2.474-2.0759-6.0749 0-8.5488a0.35 0.35 0 0 0-0.0429-0.49402 0.35 0.35 0 0 0-0.21601-0.0816zm15.918 12.336-3.0768 3.0768 0.54674 0.57154 3.1016-3.1016zm1.0222 0.97823-3.1212 3.1207 8.554 8.9374c0.0168 0.0181 0.0342 0.0361 0.0516 0.0538l6e-3 6e-3a0.33534 0.33534 0 0 0 5.1e-4 5.2e-4l5e-3 5e-3c0.96547 0.96548 2.5408 0.96651 3.5062 1e-3 0.96548-0.96547 0.96548-2.5423 0-3.5078-0.0302-0.0302-0.0607-0.0596-0.092-0.0879z" color="#000000" stroke-linecap="round" stroke-linejoin="round" stroke-width=".67061"/> </g> </svg>