<svg width="19" height="18" viewBox="0 0 19 18" fill="none" xmlns="http://www.w3.org/2000/svg">
<rect opacity="0.25" x="0.871217" y="0.224747" width="17.0808" height="17.0808" rx="8.5404" stroke="#0A142F" stroke-width="0.449495"/>
<path fill-rule="evenodd" clip-rule="evenodd" d="M9.32722 7.60822L9.33989 7.82208L9.12878 7.79589C8.36033 7.69551 7.689 7.35508 7.11901 6.78333L6.84034 6.49963L6.76856 6.70913C6.61656 7.17613 6.71368 7.66932 7.03034 8.00103C7.19923 8.18434 7.16123 8.21052 6.8699 8.10141C6.76856 8.06649 6.6799 8.04031 6.67145 8.0534C6.6419 8.08395 6.74323 8.48112 6.82345 8.63825C6.93323 8.85647 7.15701 9.07033 7.40189 9.1969L7.60878 9.29729L7.36389 9.30165C7.12745 9.30165 7.11901 9.30602 7.14434 9.39767C7.22878 9.68136 7.56234 9.98252 7.93389 10.1135L8.19567 10.2051L7.96767 10.3448C7.62989 10.5455 7.23301 10.659 6.83612 10.6677C6.64612 10.6721 6.4899 10.6896 6.4899 10.7027C6.4899 10.7463 7.00501 10.9907 7.30478 11.0867C8.20411 11.3704 9.27233 11.2482 10.0745 10.7638C10.6445 10.419 11.2145 9.73374 11.4805 9.07033C11.6241 8.71681 11.7677 8.07086 11.7677 7.76098C11.7677 7.56021 11.7803 7.53402 12.0168 7.29398C12.1561 7.15431 12.287 7.00155 12.3123 6.95791C12.3545 6.87498 12.3503 6.87498 12.135 6.94918C11.7761 7.08011 11.7254 7.06266 11.9028 6.86625C12.0337 6.72659 12.1899 6.47345 12.1899 6.39925C12.1899 6.38616 12.1265 6.40798 12.0548 6.44726C11.9788 6.49091 11.8099 6.55637 11.6832 6.59565L11.4552 6.66985L11.2483 6.52582C11.1343 6.44726 10.9739 6.35997 10.8894 6.33378C10.6741 6.27268 10.3448 6.28141 10.1505 6.35124C9.62277 6.54764 9.28922 7.05393 9.32722 7.60822Z" fill="#0A142F"/>
</svg>
